<svg width="52" height="104" viewBox="0 0 52 104" fill="none" xmlns="http://www.w3.org/2000/svg">
<path d="M48.4818 13.0015C48.4818 13.0015 56.0453 28.5216 47.337 44.74C47.337 44.74 48.4818 38.4854 45.925 27.1859C45.9288 27.1859 51.2676 22.0647 48.4818 13.0015Z" fill="url(#paint0_linear_2_207)"/>
<path d="M18.0324 92.9331C18.0324 92.9331 20.3793 102.233 15.5901 102.912C15.5901 102.912 10.9345 98.2948 9.30501 90.2848L11.1215 87.7051L18.0324 92.9331Z" fill="url(#paint1_linear_2_207)"/>
<path d="M12.6137 70.3271C12.6137 70.3271 25.2069 89.6061 41.8909 91.9148C41.8909 91.9148 36.0522 97.0742 28.9924 95.7309L15.4147 81.8823L12.6137 70.3271Z" fill="url(#paint2_linear_2_207)"/>
<path d="M15.4156 81.8667C15.4156 81.8667 31.9813 95.3108 34.29 104C34.29 104 17.2244 97.8104 11.1415 87.7053L15.4156 81.8667Z" fill="url(#paint3_linear_2_207)"/>
<path d="M13.1065 70.3271C13.1065 70.3271 20.712 84.0422 9.29036 90.2853L8.20658 87.7057C8.20658 87.7057 12.8889 83.0348 9.87041 74.3722L13.1065 70.3271Z" fill="url(#paint4_linear_2_207)"/>
<path d="M10.133 74.0591C10.133 74.0591 13.3806 82.9544 8.22499 87.7055C8.22499 87.7055 5.93533 81.5997 4.82866 76.5739L10.133 74.0591Z" fill="url(#paint5_linear_2_207)"/>
<path d="M27.5996 58.3862C27.5996 58.3862 23.9705 65.1751 27.6339 70.8801H19.6926C19.6926 70.8801 16.7771 68.4378 18.6737 59.4738L27.5996 58.3862Z" fill="url(#paint6_linear_2_207)"/>
<path d="M29.6725 18.3745C29.6725 18.3745 -9.02276 33.8068 1.96379 80.3747C1.96379 80.3747 2.38356 41.1376 29.6725 18.3745Z" fill="url(#paint7_linear_2_207)"/>
<path d="M31.7095 21.5877C31.7095 21.5877 12.0222 36.5201 13.106 71.5481C13.106 71.5481 4.82503 79.0162 1.97441 80.3747C1.97441 80.3747 0.0091114 43.5799 29.6717 18.3745L31.7095 21.5877Z" fill="url(#paint8_linear_2_207)"/>
<path d="M17.656 0C17.656 0 49.6311 7.33073 47.8032 43.786C47.8032 43.786 42.079 58.0391 21.5293 61.0958C21.5255 61.0958 45.3532 23.4194 17.656 0Z" fill="url(#paint9_linear_2_207)"/>
<path d="M23.9601 2.30911C23.9601 2.30911 37.6981 -5.7047 47.8718 11.8112C47.8718 11.8112 53.2601 20.5157 46.1507 27.7052C46.1507 27.7052 39.8351 11.6738 23.9601 2.30911Z" fill="url(#paint10_linear_2_207)"/>
<path d="M30.4854 22.0381C30.4854 22.0381 34.0153 44.9347 13.1069 57.4286C13.1069 57.4286 13.1031 38.6496 30.4854 22.0381Z" fill="url(#paint11_linear_2_207)"/>
<path d="M30.4854 22.0381C30.4854 22.0381 36.5911 45.5567 13.1069 71.5482C13.1069 71.5482 11.9391 66.6635 13.2023 55.7991C13.2023 55.7991 32.195 44.7401 30.4854 22.0381Z" fill="url(#paint12_linear_2_207)"/>
<path d="M35.2675 71.7429C35.9238 71.7429 36.4581 71.3842 36.4619 70.724C36.4657 70.0638 35.9353 69.7509 35.2713 69.7471L13.115 69.8348C12.9665 69.8195 12.8165 69.8351 12.6743 69.8805C12.5321 69.9259 12.4008 70.0002 12.2886 70.0987C12.1765 70.1973 12.0859 70.3179 12.0226 70.4531C11.9592 70.5882 11.9245 70.735 11.9206 70.8843C11.9206 71.5483 12.4472 71.8459 13.1112 71.8497L35.2598 71.7429H35.2675Z" fill="url(#paint13_linear_2_207)"/>
<path d="M25.6617 9.15869C25.6617 9.15869 47.6653 30.3113 38.0831 54.9519C38.0831 54.9519 29.4511 61.3515 21.1702 61.0996C21.1702 61.0958 39.4455 32.7269 25.6617 9.15869Z" fill="url(#paint14_linear_2_207)"/>
<path d="M39.3846 75.2497C40.359 75.2497 41.3115 74.9607 42.1216 74.4194C42.9318 73.878 43.5633 73.1086 43.9361 72.2084C44.309 71.3082 44.4066 70.3176 44.2165 69.3619C44.0264 68.4063 43.5572 67.5284 42.8682 66.8394C42.1792 66.1505 41.3014 65.6812 40.3457 65.4911C39.39 65.3011 38.3995 65.3986 37.4992 65.7715C36.599 66.1444 35.8296 66.7758 35.2883 67.586C34.7469 68.3962 34.458 69.3487 34.458 70.3231C34.459 71.6294 34.9784 72.8819 35.9021 73.8056C36.8257 74.7293 38.0783 75.2487 39.3846 75.2497ZM39.3846 67.793C39.8859 67.793 40.3759 67.9417 40.7927 68.2203C41.2095 68.4989 41.5343 68.8949 41.7259 69.3581C41.9176 69.8213 41.9676 70.331 41.8695 70.8226C41.7714 71.3143 41.5297 71.7658 41.1749 72.12C40.8202 72.4742 40.3683 72.7152 39.8766 72.8126C39.3848 72.9099 38.8752 72.8592 38.4122 72.6668C37.9493 72.4744 37.5538 72.1491 37.2759 71.7319C36.9979 71.3147 36.8499 70.8244 36.8507 70.3231C36.8507 69.9905 36.9162 69.6612 37.0436 69.354C37.171 69.0468 37.3577 68.7677 37.5931 68.5327C37.8284 68.2977 38.1078 68.1114 38.4152 67.9845C38.7226 67.8576 39.052 67.7925 39.3846 67.793Z" fill="url(#paint15_linear_2_207)"/>
<path d="M34.6301 13.0016C33.57 13.0016 32.7106 12.1422 32.7106 11.0821C32.7106 10.022 33.57 9.1626 34.6301 9.1626C35.6902 9.1626 36.5496 10.022 36.5496 11.0821C36.5496 12.1422 35.6902 13.0016 34.6301 13.0016Z" fill="#0E192D"/>
<defs>
<linearGradient id="paint0_linear_2_207" x1="-944.213" y1="708.075" x2="-525.731" y2="2317.04" gradientUnits="userSpaceOnUse">
<stop stop-color="#27D885"/>
<stop offset="1" stop-color="#2B6A67"/>
</linearGradient>
<linearGradient id="paint1_linear_2_207" x1="11.7817" y1="86.6022" x2="18.9101" y2="106.969" gradientUnits="userSpaceOnUse">
<stop stop-color="#2B6A67"/>
<stop offset="1" stop-color="#27AF85"/>
</linearGradient>
<linearGradient id="paint2_linear_2_207" x1="-6495.11" y1="6062.16" x2="-7148.3" y2="5106.47" gradientUnits="userSpaceOnUse">
<stop stop-color="#2B6A67"/>
<stop offset="1" stop-color="#27AF85"/>
</linearGradient>
<linearGradient id="paint3_linear_2_207" x1="23.292" y1="99.3177" x2="19.5637" y2="76.9287" gradientUnits="userSpaceOnUse">
<stop stop-color="#27AF85"/>
<stop offset="1" stop-color="#2B6A67"/>
</linearGradient>
<linearGradient id="paint4_linear_2_207" x1="-1989.93" y1="4692.85" x2="-2040.01" y2="3700.71" gradientUnits="userSpaceOnUse">
<stop stop-color="#27D885"/>
<stop offset="1" stop-color="#2B6A67"/>
</linearGradient>
<linearGradient id="paint5_linear_2_207" x1="-1733.96" y1="3032.18" x2="-2041.3" y2="2778.2" gradientUnits="userSpaceOnUse">
<stop stop-color="#2B6A67"/>
<stop offset="1" stop-color="#27AF85"/>
</linearGradient>
<linearGradient id="paint6_linear_2_207" x1="16.6855" y1="59.6875" x2="29.355" y2="68.6744" gradientUnits="userSpaceOnUse">
<stop stop-color="#C4C737"/>
<stop offset="1" stop-color="#43865D"/>
</linearGradient>
<linearGradient id="paint7_linear_2_207" x1="-9645.64" y1="7855.2" x2="-7555.91" y2="7901.57" gradientUnits="userSpaceOnUse">
<stop stop-color="#27D885"/>
<stop offset="1" stop-color="#2B6A67"/>
</linearGradient>
<linearGradient id="paint8_linear_2_207" x1="-7696.88" y1="7367.88" x2="-7159.26" y2="13161.3" gradientUnits="userSpaceOnUse">
<stop stop-color="#27D885"/>
<stop offset="1" stop-color="#2B6A67"/>
</linearGradient>
<linearGradient id="paint9_linear_2_207" x1="37.5989" y1="17.1343" x2="22.4986" y2="34.1923" gradientUnits="userSpaceOnUse">
<stop stop-color="#BAC937"/>
<stop offset="1" stop-color="#00475D"/>
</linearGradient>
<linearGradient id="paint10_linear_2_207" x1="-4414.17" y1="1005.93" x2="-6167.75" y2="1005.93" gradientUnits="userSpaceOnUse">
<stop stop-color="#27D885"/>
<stop offset="1" stop-color="#2B6A67"/>
</linearGradient>
<linearGradient id="paint11_linear_2_207" x1="22.5746" y1="22.7631" x2="21.3916" y2="56.8791" gradientUnits="userSpaceOnUse">
<stop stop-color="#BAC937"/>
<stop offset="1" stop-color="#00665D"/>
</linearGradient>
<linearGradient id="paint12_linear_2_207" x1="-4536.97" y1="6376.66" x2="-4598.91" y2="8219.12" gradientUnits="userSpaceOnUse">
<stop stop-color="#BAC937"/>
<stop offset="1" stop-color="#00665D"/>
</linearGradient>
<linearGradient id="paint13_linear_2_207" x1="36.4619" y1="70.7812" x2="11.9129" y2="70.7812" gradientUnits="userSpaceOnUse">
<stop stop-color="#D1DB37"/>
<stop offset="1" stop-color="#43865D"/>
</linearGradient>
<linearGradient id="paint14_linear_2_207" x1="-4266.77" y1="4668.91" x2="-6163.63" y2="5923.61" gradientUnits="userSpaceOnUse">
<stop stop-color="#BAC937"/>
<stop offset="1" stop-color="#00665D"/>
</linearGradient>
<linearGradient id="paint15_linear_2_207" x1="-1798.53" y1="1881.14" x2="-2052.94" y2="1881.14" gradientUnits="userSpaceOnUse">
<stop stop-color="#D1DB37"/>
<stop offset="1" stop-color="#43865D"/>
</linearGradient>
</defs>
</svg>
